<svg xmlns="http://www.w3.org/2000/svg" viewBox="0 0 1325.5153 622.69177"><title>Phox</title><path fill="#fff" fill-rule="evenodd" stroke="#fff" d="M148.3 428.5l43 9-12.7-50.4-26.6 13zm167.2-43l27.8 13.7 6 27.3-43 9.6H304zM212 581l35.8-22.7 34.4 25.3-33.4 29.2zM13 22l185.8 149-86.3-14.7zm285.3 147l83.4-10.7 96-133z"/><path fill="none" stroke="#fff" stroke-width="20" d="M11 18.4L204 173l44.3 15 47.5-18 187-150.6L436 288l30.5 121L323 537.7l-41.3 45.6-33 29.5-34.7-29.5-39.4-43.6L30 409.3 59.5 287z"/><path fill="none" stroke="#fff" stroke-width="15" d="M9.6 17l103.6 139 42.8 82.8 22.6 144.7 13.7 52.6 10.6 54 11 88 34-19.3 33 20 11-86.3 11-55.3 13.5-51.7 23-149 43-81L482 19.5"/><path fill="none" stroke="#fff" stroke-width="20" d="M30.3 409.3l88 11.4 33.3 9.8 97 18.4L377 422l89.7-13"/><path fill="none" stroke="#fff" stroke-width="15" d="M174 537l28.5-48.5L248 451l45.2 38.3 28.6 49.2"/><path fill="none" stroke="#fff" stroke-width="13" d="M147.8 428.5l3.5-27.8 28.3-15.6 68-189L317 386l27.2 14 4.5 28.3"/><path fill="none" stroke="#fff" stroke-width="20" d="M436 288.5l-54.5-131-89 13.5m-233 116L114 155.8l90.3 17"/><path fill="none" stroke="#fff" stroke-width="13" d="M59 288l68 60.2 52 37.4m137 1l51-37.4 69.2-58.6"/><path fill="#fff" d="M522 223.2h69.6q27.8 0 43 13.5Q650 250.2 650 275q0 24.7-15.4 38.5-15.5 13.7-43 13.7h-49.2v72.3H522V223.2zm67.6 87q40.3 0 40.3-35.2 0-34.8-41-34.8h-47v70h47zm219.2-87H829v176.3h-20.2v-80.8H703.3v80.8H683V223.2h20.3v78h105.5v-78zm132.4 178.3q-34.5 0-52.2-18-17.8-18-17.8-53V223.2h20.3v109q0 25.8 12.5 38.8 12.7 13 37.2 13 24.5 0 37-13t12.5-38.8v-109h20.5v107.3q0 34.7-18 53-17.7 18-52 18zm250.2-2H1165l-91-83.8v83.8h-20.4V223.2h20.5v81l87-81h26l-92 85.8 97 90.5zm69 2q-41 0-66-22.3l8-15.7q13 11 26.6 15.7 13.8 4.8 31.8 4.8 21.2 0 32.7-8.3 11.5-8.2 11.5-23.2 0-8.8-5.5-14.3t-14.5-8.7q-9-3.3-24.2-6.8-20.5-4.7-33.8-10-13-5.2-21.2-15-8-9.7-8-25.5 0-15 7.7-26.5 8-11.7 22.5-18 14.8-6.5 34-6.5 18.3 0 34 5.8 16 5.7 27 16.5l-7.7 15.7q-12.5-10.7-25.5-15.5-12.8-5-27.8-5-20.5 0-32.2 8.8-11.5 8.5-11.5 24 0 13.2 10.2 20 10.3 6.7 31 11.5 22.8 5.5 35.8 10.2 13 4.5 21.5 13.8 8.7 9.2 8.7 24.7 0 15-8 26.3-7.7 11.2-22.5 17.5-14.7 6-34.5 6z" style="line-height:125%;-inkscape-font-specification:'Nunito Sans, Normal';text-align:start" font-size="250" font-family="Nunito Sans" letter-spacing="0" word-spacing="0"/></svg>