<?xml version="1.0" encoding="UTF-8" standalone="no"?>
<svg
   xmlns:dc="http://purl.org/dc/elements/1.1/"
   xmlns:cc="http://creativecommons.org/ns#"
   xmlns:rdf="http://www.w3.org/1999/02/22-rdf-syntax-ns#"
   xmlns:svg="http://www.w3.org/2000/svg"
   xmlns="http://www.w3.org/2000/svg"
   xmlns:sodipodi="http://sodipodi.sourceforge.net/DTD/sodipodi-0.dtd"
   xmlns:inkscape="http://www.inkscape.org/namespaces/inkscape"
   viewBox="0 0 1812.3681 604.54902"
   version="1.1"
   id="svg20"
   sodipodi:docname="logo-white.svg"
   width="1812.3682"
   height="604.54901"
   inkscape:version="0.92.2 5c3e80d, 2017-08-06">
  <metadata
     id="metadata26">
    <rdf:RDF>
      <cc:Work
         rdf:about="">
        <dc:format>image/svg+xml</dc:format>
        <dc:type
           rdf:resource="http://purl.org/dc/dcmitype/StillImage" />
        <dc:title></dc:title>
      </cc:Work>
    </rdf:RDF>
  </metadata>
  <defs
     id="defs24" />
  <sodipodi:namedview
     pagecolor="#ffffff"
     bordercolor="#666666"
     borderopacity="1"
     objecttolerance="10"
     gridtolerance="10"
     guidetolerance="10"
     inkscape:pageopacity="0"
     inkscape:pageshadow="2"
     inkscape:window-width="1358"
     inkscape:window-height="730"
     id="namedview22"
     showgrid="false"
     inkscape:pagecheckerboard="true"
     fit-margin-top="0"
     fit-margin-left="0"
     fit-margin-right="0"
     fit-margin-bottom="0"
     inkscape:zoom="0.29865042"
     inkscape:cx="1020.8326"
     inkscape:cy="467.74905"
     inkscape:window-x="0"
     inkscape:window-y="18"
     inkscape:window-maximized="0"
     inkscape:current-layer="svg20" />
  <path
     class="th-l-fill"
     d="m 141.04185,416.32313 43,9 -12.7,-50.4 -26.7,12.7 z m 167.2,-43 27.8,13.8 6,27.2 -43,9.6 h -2.4 z m -103.5,195.8 35.8,-22.8 34.4,25.3 -34,29.3 z M 5.7418532,9.9231346 191.54185,158.92313 l -86.3,-14.8 z M 291.04185,156.62313 l 83.4,-10.6 96,-132.999995 z"
     id="path4"
     inkscape:connector-curvature="0"
     style="fill:#ffffff;fill-rule:evenodd;stroke:#ffffff" />
  <path
     class="th-l-stroke"
     d="M 3.6418532,6.1231346 196.64185,160.82313 l 44.4,15 47.5,-18 187,-150.6999954 -46.7,268.9999954 30.4,121 -143.6,128.5 -41.4,45.6 -33,30 -34.7,-29.4 -39.5,-43.7 -143.999997,-131 29,-122 z"
     id="path6"
     inkscape:connector-curvature="0"
     style="fill:none;stroke:#ffffff;stroke-width:5" />
  <path
     class="th-l-stroke"
     d="M 2.8418532,4.8231346 105.84185,143.82313 l 43,82.8 22.5,144.8 13.7,52.5 10.6,54 11,90.8 34.4,-23 32.4,23 12,-89.2 11,-55.2 13.3,-52 22.7,-148.2 43,-80.8 99.6,-136.1999954"
     id="path8"
     inkscape:connector-curvature="0"
     style="fill:none;stroke:#ffffff;stroke-width:4" />
  <path
     class="th-l-stroke"
     d="m 23.041853,397.12313 87.999997,11.4 33.3,10 97,18.3 128.5,-27 89.6,-13"
     id="path10"
     inkscape:connector-curvature="0"
     style="fill:none;stroke:#ffffff;stroke-width:5" />
  <path
     class="th-l-stroke"
     d="m 166.64185,525.12313 28.6,-48.7 45.5,-37.7 45.3,38.4 28.5,49.3"
     id="path12"
     inkscape:connector-curvature="0"
     style="fill:none;stroke:#ffffff;stroke-width:4" />
  <path
     class="th-l-stroke"
     d="m 140.54185,416.32313 3.6,-27.7 29,-15.7 68,-194.5 69,195.2 27.3,14 4.6,28.2"
     id="path14"
     inkscape:connector-curvature="0"
     style="fill:none;stroke:#ffffff;stroke-width:3" />
  <path
     class="th-l-stroke"
     d="m 428.84185,276.42313 -54.6,-131 -89,13.5 m -232.999997,116.2 54.399997,-131.6 90.4,17"
     id="path16"
     inkscape:connector-curvature="0"
     style="fill:none;stroke:#ffffff;stroke-width:5" />
  <path
     class="th-l-stroke"
     d="m 51.641853,275.92313 68.199997,60 52,37.5 m 137,1 51,-37.4 69,-59"
     id="path18"
     inkscape:connector-curvature="0"
     style="fill:none;stroke:#ffffff;stroke-width:3" />
  <flowRoot
     xml:space="preserve"
     id="flowRoot841"
     style="font-style:normal;font-weight:normal;font-size:40px;line-height:125%;font-family:sans-serif;letter-spacing:0px;word-spacing:0px;fill:#000000;fill-opacity:1;stroke:none;stroke-width:1px;stroke-linecap:butt;stroke-linejoin:miter;stroke-opacity:1"
     transform="translate(0.04185322,0.12313461)"><flowRegion
       id="flowRegion843"><rect
         id="rect845"
         width="1018.0997"
         height="331.47433"
         x="468.79941"
         y="68.712479" /></flowRegion><flowPara
       id="flowPara847"></flowPara></flowRoot>  <g
     aria-label="SAFESPACE"
     transform="translate(0.04185322,296.98593)"
     style="font-style:normal;font-weight:normal;font-size:40px;line-height:125%;font-family:sans-serif;letter-spacing:0px;word-spacing:0px;fill:#000000;fill-opacity:1;stroke:none;stroke-width:1px;stroke-linecap:butt;stroke-linejoin:miter;stroke-opacity:1"
     id="flowRoot849">
    <path
       d="m 550.14,91.808562 q -39.6,0 -63.36,-21.36 l 7.68,-15.12 q 12.48,10.56 25.44,15.12 13.2,4.56 30.48,4.56 20.4,0 31.44,-7.92 11.04,-7.92 11.04,-22.32 0,-8.4 -5.28,-13.68 -5.28,-5.28 -13.92,-8.4 -8.64,-3.12 -23.28,-6.48 -19.68,-4.56 -32.4,-9.5999995 -12.48,-5.04 -20.4,-14.4 -7.68,-9.3600005 -7.68,-24.4800005 0,-14.4 7.44,-25.44 7.68,-11.28 21.6,-17.28 14.16,-6.24 32.64,-6.24 17.52,0 32.64,5.52 15.36,5.52 25.92,15.84 l -7.44,15.12 q -12,-10.32 -24.48,-14.88 -12.24,-4.8 -26.64,-4.8 -19.68,0 -30.96,8.4 -11.04,8.16 -11.04,23.04 0,12.72 9.84,19.2 9.84,6.4800005 29.76,11.0400005 21.84,5.28 34.32,9.84 12.48,4.3199995 20.64,13.1999995 8.4,8.88 8.4,23.76 0,14.4 -7.68,25.2 -7.44,10.8 -21.6,16.8 -14.16,5.76 -33.12,5.76 z"
       style="font-style:normal;font-variant:normal;font-weight:normal;font-stretch:normal;font-size:240px;font-family:'Nunito Sans';-inkscape-font-specification:'Nunito Sans, Normal';font-variant-ligatures:normal;font-variant-caps:normal;font-variant-numeric:normal;font-feature-settings:normal;text-align:start;writing-mode:lr-tb;text-anchor:start;fill:#ffffff;fill-opacity:1"
       id="path4575" />
    <path
       d="m 772.9275,89.888562 -18.72,-43.44 h -88.32 l -18.72,43.44 h -20.16 l 74.4,-169.2 h 17.04 l 74.4,169.2 z m -100.08,-59.76 h 74.4 l -37.2,-86.64 z"
       style="font-style:normal;font-variant:normal;font-weight:normal;font-stretch:normal;font-size:240px;font-family:'Nunito Sans';-inkscape-font-specification:'Nunito Sans, Normal';font-variant-ligatures:normal;font-variant-caps:normal;font-variant-numeric:normal;font-feature-settings:normal;text-align:start;writing-mode:lr-tb;text-anchor:start;fill:#ffffff;fill-opacity:1"
       id="path4577" />
    <path
       d="m 817.9425,89.888562 v -169.2 h 104.64 v 16.56 h -85.2 v 58.3200005 h 80.4 V 12.128562 h -80.4 v 77.76 z"
       style="font-style:normal;font-variant:normal;font-weight:normal;font-stretch:normal;font-size:240px;font-family:'Nunito Sans';-inkscape-font-specification:'Nunito Sans, Normal';font-variant-ligatures:normal;font-variant-caps:normal;font-variant-numeric:normal;font-feature-settings:normal;text-align:start;writing-mode:lr-tb;text-anchor:start;fill:#ffffff;fill-opacity:1"
       id="path4579" />
    <path
       d="m 951.53625,89.888562 v -169.2 h 107.04005 v 16.32 h -87.60005 v 58.8000005 h 82.79995 V 12.128562 h -82.79995 v 61.44 h 87.60005 v 16.32 z"
       style="font-style:normal;font-variant:normal;font-weight:normal;font-stretch:normal;font-size:240px;font-family:'Nunito Sans';-inkscape-font-specification:'Nunito Sans, Normal';font-variant-ligatures:normal;font-variant-caps:normal;font-variant-numeric:normal;font-feature-settings:normal;text-align:start;writing-mode:lr-tb;text-anchor:start;fill:#ffffff;fill-opacity:1"
       id="path4581" />
    <path
       d="m 1142.64,91.808562 q -39.6,0 -63.36,-21.36 l 7.68,-15.12 q 12.48,10.56 25.44,15.12 13.2,4.56 30.48,4.56 20.4,0 31.44,-7.92 11.04,-7.92 11.04,-22.32 0,-8.4 -5.28,-13.68 -5.28,-5.28 -13.92,-8.4 -8.64,-3.12 -23.28,-6.48 -19.68,-4.56 -32.4,-9.5999995 -12.48,-5.04 -20.4,-14.4 -7.68,-9.3600005 -7.68,-24.4800005 0,-14.4 7.44,-25.44 7.68,-11.28 21.6,-17.28 14.16,-6.24 32.64,-6.24 17.52,0 32.64,5.52 15.36,5.52 25.92,15.84 l -7.44,15.12 q -12,-10.32 -24.48,-14.88 -12.24,-4.8 -26.64,-4.8 -19.68,0 -30.96,8.4 -11.04,8.16 -11.04,23.04 0,12.72 9.84,19.2 9.84,6.4800005 29.76,11.0400005 21.84,5.28 34.32,9.84 12.48,4.3199995 20.64,13.1999995 8.4,8.88 8.4,23.76 0,14.4 -7.68,25.2 -7.44,10.8 -21.6,16.8 -14.16,5.76 -33.12,5.76 z"
       style="font-style:normal;font-variant:normal;font-weight:normal;font-stretch:normal;font-size:240px;font-family:'Nunito Sans';-inkscape-font-specification:'Nunito Sans, Normal';font-variant-ligatures:normal;font-variant-caps:normal;font-variant-numeric:normal;font-feature-settings:normal;text-align:start;writing-mode:lr-tb;text-anchor:start;fill:#ffffff;fill-opacity:1"
       id="path4583" />
    <path
       d="m 1237.005,-79.311438 h 66.96 q 26.64,0 41.28,12.96 14.88,12.96 14.88,36.72 0,23.7600005 -14.88,36.9600005 -14.88,13.1999995 -41.28,13.1999995 h -47.28 v 69.36 h -19.68 z m 65.04,83.5200005 q 38.64,0 38.64,-33.8400005 0,-33.36 -38.64,-33.36 h -45.36 V 4.2085625 Z"
       style="font-style:normal;font-variant:normal;font-weight:normal;font-stretch:normal;font-size:240px;font-family:'Nunito Sans';-inkscape-font-specification:'Nunito Sans, Normal';font-variant-ligatures:normal;font-variant-caps:normal;font-variant-numeric:normal;font-feature-settings:normal;text-align:start;writing-mode:lr-tb;text-anchor:start;fill:#ffffff;fill-opacity:1"
       id="path4585" />
    <path
       d="m 1503.24,89.888562 -18.72,-43.44 h -88.32 l -18.72,43.44 h -20.16 l 74.4,-169.2 h 17.04 l 74.4,169.2 z m -100.08,-59.76 h 74.4 l -37.2,-86.64 z"
       style="font-style:normal;font-variant:normal;font-weight:normal;font-stretch:normal;font-size:240px;font-family:'Nunito Sans';-inkscape-font-specification:'Nunito Sans, Normal';font-variant-ligatures:normal;font-variant-caps:normal;font-variant-numeric:normal;font-feature-settings:normal;text-align:start;writing-mode:lr-tb;text-anchor:start;fill:#ffffff;fill-opacity:1"
       id="path4587" />
    <path
       d="m 1614.87,91.808562 q -24,0 -41.76,-10.32 -17.76,-10.56 -27.36,-30 -9.36,-19.68 -9.36,-46.3199995 0,-26.6400005 9.36,-46.0800005 9.6,-19.44 27.36,-29.76 17.76,-10.56 41.76,-10.56 17.52,0 32.16,5.52 14.64,5.28 25.44,15.84 l -7.44,15.12 q -12.24,-10.32 -24,-14.88 -11.76,-4.56 -25.92,-4.56 -27.84,0 -43.2,18.24 -15.12,18 -15.12,51.1200005 0,33.3599995 15.12,51.5999995 15.36,18 43.2,18 14.16,0 25.92,-4.56 11.76,-4.56 24,-14.88 l 7.44,15.12 q -10.8,10.56 -25.44,16.08 -14.64,5.28 -32.16,5.28 z"
       style="font-style:normal;font-variant:normal;font-weight:normal;font-stretch:normal;font-size:240px;font-family:'Nunito Sans';-inkscape-font-specification:'Nunito Sans, Normal';font-variant-ligatures:normal;font-variant-caps:normal;font-variant-numeric:normal;font-feature-settings:normal;text-align:start;writing-mode:lr-tb;text-anchor:start;fill:#ffffff;fill-opacity:1"
       id="path4589" />
    <path
       d="m 1705.2863,89.888562 v -169.2 h 107.04 v 16.32 h -87.6 v 58.8000005 h 82.7999 V 12.128562 h -82.7999 v 61.44 h 87.6 v 16.32 z"
       style="font-style:normal;font-variant:normal;font-weight:normal;font-stretch:normal;font-size:240px;font-family:'Nunito Sans';-inkscape-font-specification:'Nunito Sans, Normal';font-variant-ligatures:normal;font-variant-caps:normal;font-variant-numeric:normal;font-feature-settings:normal;text-align:start;writing-mode:lr-tb;text-anchor:start;fill:#ffffff;fill-opacity:1"
       id="path4591" />
  </g>
  <flowRoot
     xml:space="preserve"
     id="flowRoot857"
     style="font-style:normal;font-weight:normal;font-size:40px;line-height:125%;font-family:sans-serif;letter-spacing:0px;word-spacing:0px;fill:#000000;fill-opacity:1;stroke:none;stroke-width:1px;stroke-linecap:butt;stroke-linejoin:miter;stroke-opacity:1"
     transform="translate(0.04185322,0.12313461)"><flowRegion
       id="flowRegion859"><rect
         id="rect861"
         width="28.412086"
         height="62.743355"
         x="531.54279"
         y="30.829699" /></flowRegion><flowPara
       id="flowPara863"></flowPara></flowRoot></svg>
