<svg xmlns="http://www.w3.org/2000/svg" viewBox="0 0 1325.8973 603.80677">
    <path class="th-l-fill" fill="#fff" stroke="#fff" d="M522 223h69.5q27.8 0 43 13.5Q650 250 650 274.8q0 24.7-15.5 38.5-15.5 13.7-43 13.7h-49.2v72.3H522V223zm67.5 87q40.3 0 40.3-35.2 0-34.8-41-34.8h-47v70h47zm219.2-87H829v176.3h-20.3v-80.8H703.2v80.8H683V223h20v78h105.5v-78zM941 401.3q-34.4 0-52-18-18-18-18-53V223h20.4v109q0 25.8 12.5 38.8 12 13 37 13t37-13q12-13 12-38.8V223h20.4v107.3q0 34.7-18 53-17.7 18-52 18zm250.3-2H1165l-91-83.8v83.8h-20.5V223h20.5v81l87-81h26l-92 85.8 97 90.5zm69 2q-41 0-66-22.3l8-15.7q13 11 26.6 15.7 13 4.8 31 4.8 21.2 0 32.7-8.3 11.5-8.2 11.5-23.2 0-8.8-5.6-14.3-5.5-5.5-14.5-8.7-9-3.3-24.2-6.8-20.6-4.7-34-10-13-5.2-21.2-15-8-9.7-8-25.5 0-15 7.8-26.5 8-11.7 22.2-18 14.7-6.5 34-6.5 18.2 0 34 5.8 16 5.7 27 16.5l-7 15.7q-12.5-10.7-25.5-15.5-12.7-5-27.7-5-20.6 0-32.3 8.8-11.5 8.5-11.5 24 0 13.2 10 20 10 6.7 31 11.5 23 5.5 36 10.2 13 4.5 21 13.8 8.7 9.2 8.7 24.7 0 15-8 26.3-7.7 11.2-22.5 17.5-15 6-34.7 6z" />
    <path class="th-l-fill" fill="#fff" fill-rule="evenodd" stroke="#fff" d="M141 416.2l43 9-12.7-50.4-26.7 12.7zm167.2-43L336 387l6 27.2-43 9.6h-2.4zM204.7 569l35.8-22.8 34.4 25.3-34 29.3zM5.7 9.8l185.8 149-86.3-14.8zM291 156.5l83.4-10.6 96-133z"/>
    <path class="th-l-stroke" fill="none" stroke="#fff" stroke-width="5" d="M3.6 6l193 154.7 44.4 15 47.5-18L475.5 7l-46.7 269 30.4 121-143.6 128.5-41.4 45.6-33 30-34.7-29.4L167 528 23 397l29-122z"/>
    <path class="th-l-stroke" fill="none" stroke="#fff" stroke-width="4" d="M2.8 4.7l103 139 43 82.8 22.5 144.8 13.7 52.5 10.6 54 11 90.8 34.4-23 32.4 23 12-89.2 11-55.2 13.3-52L332.4 224l43-80.8L475 7"/>
    <path class="th-l-stroke" fill="none" stroke="#fff" stroke-width="5" d="M23 397l88 11.4 33.3 10 97 18.3 128.5-27 89.6-13"/>
    <path class="th-l-stroke" fill="none" stroke="#fff" stroke-width="4" d="M166.6 525l28.6-48.7 45.5-37.7L286 477l28.5 49.3"/>
    <path class="th-l-stroke" fill="none" stroke="#fff" stroke-width="3" d="M140.5 416.2l3.6-27.7 29-15.7 68-194.5 69 195.2 27.3 14 4.6 28.2"/>
    <path class="th-l-stroke" fill="none" stroke="#fff" stroke-width="5" d="M428.8 276.3l-54.6-131-89 13.5M52.2 275l54.4-131.6 90.4 17"/>
    <path class="th-l-stroke" fill="none" stroke="#fff" stroke-width="3" d="M51.6 275.8l68.2 60 52 37.5m137 1l51-37.4 69-59"/>
</svg>
