<svg xmlns="http://www.w3.org/2000/svg" viewBox="0 0 48.383518 10.436354">
  <g fill="#0cf" font-family="Montserrat" font-size="10.9361" font-weight="700">
    <path d="M15.323756 8.933422h-1.771649V2.721717h-2.449686V1.278152h6.671021v1.443565h-2.449686zM22.18067 2.962311q1.09361 0 1.760712.656166.678038.656166.678038 1.946626v3.368319h-1.706032V5.827569q0-.69991-.30621-1.038929-.306211-.349955-.885825-.349955-.645229 0-1.027993.404635-.382763.3937-.382763 1.181099v2.909003h-1.706032V.818836h1.706032v2.843386q.339019-.33902.820207-.513997.481188-.185914 1.049866-.185914zM27.790889 3.826263q.306211-.426508.820208-.64523.524932-.218722 1.202971-.218722V4.53711q-.284339-.02187-.382764-.02187-.732719 0-1.14829.415572-.415572.404633-.415572 1.22484v2.77777H26.16141V3.0498h1.629479zM33.576074 9.020911q-.929568 0-1.673223-.382764-.732719-.3937-1.14829-1.082674-.415572-.688974-.415572-1.563862 0-.874888.415572-1.563862.415571-.688975 1.14829-1.071738.743655-.3937 1.673223-.3937.929569 0 1.662288.3937.732718.382763 1.14829 1.071738.415572.688974.415572 1.563862 0 .874888-.415572 1.563862-.415572.688974-1.14829 1.082674-.732719.382764-1.662288.382764zm0-1.399821q.656166 0 1.071738-.437444.426508-.44838.426508-1.192035t-.426508-1.181099q-.415572-.44838-1.071738-.44838t-1.082674.44838q-.426507.437444-.426507 1.181099t.426507 1.192035q.426508.437444 1.082674.437444zM40.214266 2.962311q1.367012 0 2.099731.656166.732719.64523.732719 1.957562v3.357383h-1.596671v-.732719q-.481188.820208-1.79352.820208-.678039 0-1.181099-.229659-.492125-.229658-.754591-.634293-.262467-.404636-.262467-.918633 0-.820207.612422-1.29046.623358-.470252 1.913818-.470252h1.356076q0-.557741-.339019-.853016-.339019-.30621-1.017057-.30621-.470253 0-.929569.153105-.44838.142169-.765527.3937l-.612422-1.192035q.481189-.339019 1.148291-.524933.678038-.185914 1.388885-.185914zm-.131234 4.910309q.437444 0 .776464-.19685.339019-.207786.481188-.601485v-.601486h-1.170163q-1.049865 0-1.049865.688975 0 .328083.25153.524932.262466.185914.710846.185914zM48.383522 8.649083q-.25154.185914-.62336.284339-.36089.08749-.76553.08749-1.04987 0-1.62948-.535869-.568676-.535869-.568676-1.574799V4.493365h-.907696V3.181033h.907696V1.748404h1.706036v1.432629h1.46543v1.312332h-1.46543v2.395006q0 .371827.18591.579613.19685.19685.5468.19685.40464 0 .68898-.218722z"/>
  </g>
  <path fill="#fc0" d="M2.592752 9.942405s2.140229-1.740204 3.870862-1.900944c3.318645-.308233 4.522001.0276 4.522001.0276s-2.74013-1.958838-4.651568-1.787382c-2.519034.225957-3.741295 3.660727-3.741295 3.660727z"/>
  <path fill="#0f3" d="M2.924318 0s1.30702 1.803014 2.992664 2.993219c1.838128 1.297872 4.652092 1.771703 4.652092 1.771703S6.463161 5.78027 4.796506 4.419321C2.925574 2.891565 2.924318 0 2.924318 0z" paint-order="markers fill stroke"/>
  <path fill="#0cf" d="M.453204 1.552709s2.389888 1.931949 2.376154 4.145909C2.812858 8.358728 0 10.436354 0 10.436354s1.099257-2.681033 1.28861-4.190413C1.505787 4.514773.453204 1.552709.453204 1.552709z"/>
</svg>
