<svg xmlns="http://www.w3.org/2000/svg" viewBox="0 0 1335.515 622.692">
  <g fill="#fff">
  <g style="line-height:1.25;-inkscape-font-specification:'Nirmala UI, Bold';font-variant-ligatures:no-contextual;font-variant-caps:normal;font-variant-numeric:normal;font-variant-east-asian:normal" aria-label="Äekni.to" font-weight="700" font-size="192" font-family="Nirmala UI">
    <path d="M78.177 317.888q-16.582 0-30.345-3.929-13.65-3.929-23.803-12.123-10.04-8.193-15.567-20.653Q2.934 268.724 2.934 252q0-17.623 5.866-30.419 5.979-12.796 16.583-21.214 10.266-7.97 23.69-11.674 13.424-3.704 27.864-3.704 12.973 0 23.915 2.806 10.942 2.807 20.418 7.296v34.46h-5.753q-2.369-2.02-5.753-4.715-3.272-2.694-8.122-5.275-4.625-2.47-10.153-4.041-5.528-1.684-12.86-1.684-16.245 0-25.044 10.327Q44.9 234.377 44.9 252q0 18.183 8.912 27.612 9.024 9.429 25.495 9.429 7.67 0 13.762-1.684 6.205-1.796 10.266-4.153 3.835-2.245 6.768-4.714 2.933-2.47 5.415-4.827h5.753v34.46q-9.588 4.489-20.08 7.07-10.378 2.695-23.013 2.695zm42.078-191.49L84.044 170.51H55.728l-36.211-44.113h29.781l20.87 25.48 20.757-25.48zM261.384 261.84h-83.247q1.994 27.652 35.018 27.652 21.061 0 37.013-9.92v28.272q-17.696 9.424-45.985 9.424-30.907 0-47.98-16.988-17.073-17.112-17.073-47.616 0-31.62 18.444-50.096 18.444-18.475 45.362-18.475 27.916 0 43.12 16.491 15.328 16.492 15.328 44.764zm-36.514-24.056q0-27.28-22.183-27.28-9.471 0-16.45 7.812-6.854 7.812-8.35 19.468zM412.675 314.168h-47.232l-40.751-62.992h-.499v62.992h-39.38V126.185h39.38v119.66h.499l38.01-58.652h46.733l-45.737 59.643zM550.631 314.168h-39.256v-70.556q0-29.512-21.185-29.512-10.22 0-16.824 7.812-6.605 7.812-6.605 19.84v72.416h-39.38V187.193h39.38v20.087h.498q14.082-23.187 41-23.187 42.372 0 42.372 52.327zM601.85 167.105q-9.969 0-16.325-5.828-6.355-5.952-6.355-14.508 0-8.804 6.355-14.384 6.356-5.58 16.326-5.58 10.094 0 16.325 5.58 6.356 5.58 6.356 14.384 0 8.928-6.356 14.632-6.23 5.704-16.325 5.704zm19.442 147.063h-39.38V187.193h39.38zM672.262 317.268q-9.72 0-16.2-5.952-6.481-5.952-6.481-14.632 0-8.928 6.605-14.632 6.73-5.704 16.7-5.704 10.094 0 16.45 5.828 6.48 5.704 6.48 14.508 0 9.052-6.605 14.88-6.48 5.704-16.949 5.704zM801.121 312.68q-8.723 4.588-26.295 4.588-41.624 0-41.624-43.028v-58.156h-20.687v-28.891h20.687v-27.404l39.256-11.16v38.564h28.663v28.891h-28.663v51.336q0 19.84 15.827 19.84 6.231 0 12.836-3.596zM882 317.268q-31.903 0-50.222-17.732-18.195-17.856-18.195-48.36 0-31.496 18.943-49.228 18.942-17.855 51.22-17.855 31.778 0 49.848 17.855 18.07 17.732 18.07 46.996 0 31.62-18.693 49.972-18.569 18.352-50.97 18.352zm.998-103.168q-13.958 0-21.685 9.548-7.726 9.548-7.726 27.032 0 36.58 29.66 36.58 28.289 0 28.289-37.572 0-35.588-28.538-35.588z"/>
  </g>
    <path d="M18.581 345.428c-7.706 6.88-14.088 12.849-14.182 13.264-.143.633 122.12 109.427 125.595 111.76.808.542 20.171-16.072 64.637-55.46l63.483-56.235-14.512-12.934c-8.872-7.907-14.899-12.658-15.506-12.224-.547.39-21.935 19.239-47.53 41.886-25.594 22.648-47.312 41.747-48.262 42.442-1.598 1.17-5.377-1.965-50.522-41.903-26.837-23.741-48.884-43.152-48.992-43.135-.11.016-6.503 5.66-14.209 12.539zM723.42 126.502c-7.707-6.88-14.089-12.849-14.182-13.265-.144-.632 122.119-109.426 125.594-111.76.808-.542 20.171 16.073 64.637 55.461l63.483 56.235-14.512 12.934c-8.872 7.907-14.898 12.658-15.506 12.224-.547-.39-21.935-19.24-47.53-41.887-25.594-22.647-47.312-41.746-48.262-42.441-1.598-1.17-5.377 1.964-50.522 41.902-26.837 23.742-48.883 43.153-48.992 43.136-.109-.017-6.502-5.66-14.209-12.54z" color="#000"/></g>
</svg>
