<?xml version="1.0" encoding="UTF-8" standalone="no"?>
<!-- Created with Inkscape (http://www.inkscape.org/) -->

<svg
   xmlns:dc="http://purl.org/dc/elements/1.1/"
   xmlns:cc="http://creativecommons.org/ns#"
   xmlns:rdf="http://www.w3.org/1999/02/22-rdf-syntax-ns#"
   xmlns:svg="http://www.w3.org/2000/svg"
   xmlns="http://www.w3.org/2000/svg"
   xmlns:sodipodi="http://sodipodi.sourceforge.net/DTD/sodipodi-0.dtd"
   xmlns:inkscape="http://www.inkscape.org/namespaces/inkscape"
   width="374.08987mm"
   height="175.73746mm"
   viewBox="0 0 1325.5153 622.69177"
   id="svg2"
   version="1.1"
   inkscape:version="0.91 r13725"
   sodipodi:docname="throat-white.svg">
  <title
     id="title4208">Phox</title>
  <defs
     id="defs4" />
  <sodipodi:namedview
     id="base"
     pagecolor="#290000"
     bordercolor="#666666"
     borderopacity="1.0"
     inkscape:pageopacity="0"
     inkscape:pageshadow="2"
     inkscape:zoom="0.49497475"
     inkscape:cx="775.41515"
     inkscape:cy="187.68015"
     inkscape:document-units="px"
     inkscape:current-layer="layer2"
     showgrid="false"
     inkscape:window-width="1360"
     inkscape:window-height="697"
     inkscape:window-x="0"
     inkscape:window-y="24"
     inkscape:window-maximized="1"
     fit-margin-top="0"
     fit-margin-left="0"
     fit-margin-right="0"
     fit-margin-bottom="0" />
  <metadata
     id="metadata7">
    <rdf:RDF>
      <cc:Work
         rdf:about="">
        <dc:format>image/svg+xml</dc:format>
        <dc:type
           rdf:resource="http://purl.org/dc/dcmitype/StillImage" />
        <dc:title>Phox</dc:title>
        <cc:license
           rdf:resource="http://creativecommons.org/licenses/by-sa/3.0/" />
        <dc:date>19/12/2016</dc:date>
        <dc:creator>
          <cc:Agent>
            <dc:title>Ramiro Bou (Polsaker)</dc:title>
          </cc:Agent>
        </dc:creator>
        <dc:subject>
          <rdf:Bag>
            <rdf:li>Phuks</rdf:li>
            <rdf:li>Phox</rdf:li>
            <rdf:li>fox</rdf:li>
          </rdf:Bag>
        </dc:subject>
        <dc:description />
        <dc:publisher>
          <cc:Agent>
            <dc:title>Phuks</dc:title>
          </cc:Agent>
        </dc:publisher>
        <dc:coverage>Phuks logo</dc:coverage>
      </cc:Work>
      <cc:License
         rdf:about="http://creativecommons.org/licenses/by-sa/3.0/">
        <cc:permits
           rdf:resource="http://creativecommons.org/ns#Reproduction" />
        <cc:permits
           rdf:resource="http://creativecommons.org/ns#Distribution" />
        <cc:requires
           rdf:resource="http://creativecommons.org/ns#Notice" />
        <cc:requires
           rdf:resource="http://creativecommons.org/ns#Attribution" />
        <cc:permits
           rdf:resource="http://creativecommons.org/ns#DerivativeWorks" />
        <cc:requires
           rdf:resource="http://creativecommons.org/ns#ShareAlike" />
      </cc:License>
    </rdf:RDF>
  </metadata>
  <g
     inkscape:groupmode="layer"
     id="layer2"
     inkscape:label="Layer 2"
     style="display:inline;opacity:0.98999999"
     transform="translate(-120.38384,-106.67233)">
    <path
       style="fill:#ffffff;fill-opacity:1;fill-rule:evenodd;stroke:#ffffff;stroke-width:1px;stroke-linecap:butt;stroke-linejoin:miter;stroke-opacity:1"
       d="m 268.70058,535.1641 42.93148,9.09137 -12.62691,-50.50762 -26.76904,12.6269 z"
       id="path4199"
       inkscape:connector-curvature="0" />
    <path
       style="fill:#ffffff;fill-opacity:1;fill-rule:evenodd;stroke:#ffffff;stroke-width:1px;stroke-linecap:butt;stroke-linejoin:miter;stroke-opacity:1"
       d="m 435.88082,492.23262 27.7792,13.63706 6.06091,27.27412 -42.93148,9.59645 -2.52538,0 z"
       id="path4201"
       inkscape:connector-curvature="0" />
    <path
       style="fill:#ffffff;fill-opacity:1;fill-rule:evenodd;stroke:#ffffff;stroke-width:1px;stroke-linecap:butt;stroke-linejoin:miter;stroke-opacity:1"
       d="m 332.34019,687.69714 35.86041,-22.72844 34.34519,25.25382 -33.33503,29.29442 z"
       id="path4196"
       inkscape:connector-curvature="0" />
    <path
       style="fill:#ffffff;fill-opacity:1;fill-rule:evenodd;stroke:#ffffff;stroke-width:1px;stroke-linecap:butt;stroke-linejoin:miter;stroke-opacity:1"
       d="M 133.34014,128.5777 319.2082,277.5752 232.84016,262.92799 Z"
       id="path4204"
       inkscape:connector-curvature="0" />
    <path
       style="fill:#ffffff;fill-opacity:1;fill-rule:evenodd;stroke:#ffffff;stroke-width:1px;stroke-linecap:butt;stroke-linejoin:miter;stroke-opacity:1"
       d="m 418.70823,275.5549 83.33759,-10.6066 95.96449,-132.83506 z"
       id="path4206"
       inkscape:connector-curvature="0" />
    <path
       style="fill:none;fill-rule:evenodd;stroke:#ffffff;stroke-width:20;stroke-linecap:butt;stroke-linejoin:miter;stroke-miterlimit:4;stroke-dasharray:none;stroke-opacity:1"
       d="m 131.31983,125.04217 192.93914,154.55334 44.44671,15.15229 47.47717,-18.18276 186.87822,-150.51272 -46.46702,268.70058 30.48315,121.04499 -143.62023,128.46269 -41.41626,45.599 -32.87057,29.54695 -34.80965,-29.54695 -39.39595,-43.5787 L 150.51273,515.9712 179.80715,393.74275 Z"
       id="path4147"
       inkscape:connector-curvature="0"
       sodipodi:nodetypes="ccccccccccccccc" />
    <path
       style="fill:none;fill-rule:evenodd;stroke:#ffffff;stroke-width:15;stroke-linecap:butt;stroke-linejoin:miter;stroke-miterlimit:4;stroke-dasharray:none;stroke-opacity:1"
       d="m 130,123.79078 103.57143,138.92857 42.85714,82.71428 22.57658,144.77868 13.63706,52.52794 10.6066,54.04316 10.96375,90.78538 34.49312,-22.96303 32.32488,22.96303 12.12183,-89.27015 10.77618,-55.22215 13.46748,-51.85402 22.72843,-148.49243 42.93149,-80.8122 99.50002,-135.86552"
       id="path4168"
       inkscape:connector-curvature="0"
       sodipodi:nodetypes="ccccccccccccccc" />
    <path
       style="fill:none;fill-rule:evenodd;stroke:#ffffff;stroke-width:20;stroke-linecap:butt;stroke-linejoin:miter;stroke-miterlimit:4;stroke-dasharray:none;stroke-opacity:1"
       d="m 150.71429,515.93363 87.85714,11.42857 33.41214,9.82221 96.97465,18.43528 128.54191,-27.02158 89.57707,-13.07334"
       id="path4170"
       inkscape:connector-curvature="0"
       sodipodi:nodetypes="cccccc" />
    <path
       style="fill:none;fill-rule:evenodd;stroke:#ffffff;stroke-width:15;stroke-linecap:butt;stroke-linejoin:miter;stroke-miterlimit:4;stroke-dasharray:none;stroke-opacity:1"
       d="m 294.28571,643.79078 28.57143,-48.57143 45.50508,-37.68383 45.20921,38.39811 28.57143,49.28572"
       id="path4174"
       inkscape:connector-curvature="0"
       sodipodi:nodetypes="ccccc" />
    <path
       style="fill:none;fill-rule:evenodd;stroke:#ffffff;stroke-width:13;stroke-linecap:butt;stroke-linejoin:miter;stroke-miterlimit:4;stroke-dasharray:none;stroke-opacity:1"
       d="m 268.1955,535.1641 3.53553,-27.77919 28.28428,-15.65737 68.34691,-194.48788 68.87346,195.17075 27.43449,13.96434 4.54569,28.28427"
       id="path4176"
       inkscape:connector-curvature="0"
       sodipodi:nodetypes="ccccccc" />
    <path
       style="fill:none;fill-rule:evenodd;stroke:#ffffff;stroke-width:20;stroke-linecap:butt;stroke-linejoin:miter;stroke-miterlimit:4;stroke-dasharray:none;stroke-opacity:1"
       d="M 556.42857,395.21935 501.84699,264.29586 412.9797,277.69397"
       id="path4178"
       inkscape:connector-curvature="0"
       sodipodi:nodetypes="ccc" />
    <path
       style="fill:none;fill-rule:evenodd;stroke:#ffffff;stroke-width:20;stroke-linecap:butt;stroke-linejoin:miter;stroke-miterlimit:4;stroke-dasharray:none;stroke-opacity:1"
       d="m 180,393.79078 54.28571,-131.42858 90.38253,16.93366"
       id="path4180"
       inkscape:connector-curvature="0"
       sodipodi:nodetypes="ccc" />
    <path
       style="fill:none;fill-rule:evenodd;stroke:#ffffff;stroke-width:13;stroke-linecap:butt;stroke-linejoin:miter;stroke-miterlimit:4;stroke-dasharray:none;stroke-opacity:1"
       d="m 179.30208,394.7529 68.18529,60.10407 52.02286,37.37565"
       id="path4182"
       inkscape:connector-curvature="0" />
    <path
       style="fill:none;fill-rule:evenodd;stroke:#ffffff;stroke-width:13;stroke-linecap:butt;stroke-linejoin:miter;stroke-miterlimit:4;stroke-dasharray:none;stroke-opacity:1"
       d="m 436.3859,493.24277 51.0127,-37.37564 69.19545,-58.58885"
       id="path4184"
       inkscape:connector-curvature="0" />
    <g
       style="font-style:normal;font-variant:normal;font-weight:normal;font-stretch:normal;font-size:187.5px;line-height:125%;font-family:'Nunito Sans';-inkscape-font-specification:'Nunito Sans, Normal';text-align:start;letter-spacing:0px;word-spacing:0px;writing-mode:lr-tb;text-anchor:start;fill:#ffffff;fill-opacity:1;stroke:none;stroke-width:1px;stroke-linecap:butt;stroke-linejoin:miter;stroke-opacity:1"
       id="text4213">
      <path
         d="m 642.28192,329.89322 69.75,0 q 27.75,0 43,13.5 15.5,13.5 15.5,38.25 0,24.75 -15.5,38.5 -15.5,13.75 -43,13.75 l -49.25,0 0,72.25 -20.5,0 0,-176.25 z m 67.75,87 q 40.25,0 40.25,-35.25 0,-34.75 -40.25,-34.75 l -47.25,0 0,70 47.25,0 z"
         style="font-style:normal;font-variant:normal;font-weight:normal;font-stretch:normal;font-size:250px;line-height:125%;font-family:'Nunito Sans';-inkscape-font-specification:'Nunito Sans, Normal';text-align:start;writing-mode:lr-tb;text-anchor:start;fill:#ffffff;fill-opacity:1"
         id="path4164" />
      <path
         d="m 929.16473,329.89322 20.25,0 0,176.25 -20.25,0 0,-80.75 -105.5,0 0,80.75 -20.25,0 0,-176.25 20.25,0 0,78 105.5,0 0,-78 z"
         style="font-style:normal;font-variant:normal;font-weight:normal;font-stretch:normal;font-size:250px;line-height:125%;font-family:'Nunito Sans';-inkscape-font-specification:'Nunito Sans, Normal';text-align:start;writing-mode:lr-tb;text-anchor:start;fill:#ffffff;fill-opacity:1"
         id="path4166" />
      <path
         d="m 1061.6179,508.14322 q -34.5,0 -52.25,-18 -17.75004,-18 -17.75004,-53 l 0,-107.25 20.25004,0 0,109 q 0,25.75 12.5,38.75 12.75,13 37.25,13 24.5,0 37,-13 12.5,-13 12.5,-38.75 l 0,-109 20.5,0 0,107.25 q 0,34.75 -18,53 -17.75,18 -52,18 z"
         style="font-style:normal;font-variant:normal;font-weight:normal;font-stretch:normal;font-size:250px;line-height:125%;font-family:'Nunito Sans';-inkscape-font-specification:'Nunito Sans, Normal';text-align:start;writing-mode:lr-tb;text-anchor:start;fill:#ffffff;fill-opacity:1"
         id="path4169" />
      <path
         d="m 1311.7702,506.14322 -26.5,0 -90.75,-83.75 0,83.75 -20.5,0 0,-176.25 20.5,0 0,81 86.5,-81 26,0 -92,85.75 96.75,90.5 z"
         style="font-style:normal;font-variant:normal;font-weight:normal;font-stretch:normal;font-size:250px;line-height:125%;font-family:'Nunito Sans';-inkscape-font-specification:'Nunito Sans, Normal';text-align:start;writing-mode:lr-tb;text-anchor:start;fill:#ffffff;fill-opacity:1"
         id="path4171" />
      <path
         d="m 1380.8991,508.14322 q -41.25,0 -66,-22.25 l 8,-15.75 q 13,11 26.5,15.75 13.75,4.75 31.75,4.75 21.25,0 32.75,-8.25 11.5,-8.25 11.5,-23.25 0,-8.75 -5.5,-14.25 -5.5,-5.5 -14.5,-8.75 -9,-3.25 -24.25,-6.75 -20.5,-4.75 -33.75,-10 -13,-5.25 -21.25,-15 -8,-9.75 -8,-25.5 0,-15 7.75,-26.5 8,-11.75 22.5,-18 14.75,-6.5 34,-6.5 18.25,0 34,5.75 16,5.75 27,16.5 l -7.75,15.75 q -12.5,-10.75 -25.5,-15.5 -12.75,-5 -27.75,-5 -20.5,0 -32.25,8.75 -11.5,8.5 -11.5,24 0,13.25 10.25,20 10.25,6.75 31,11.5 22.75,5.5 35.75,10.25 13,4.5 21.5,13.75 8.75,9.25 8.75,24.75 0,15 -8,26.25 -7.75,11.25 -22.5,17.5 -14.75,6 -34.5,6 z"
         style="font-style:normal;font-variant:normal;font-weight:normal;font-stretch:normal;font-size:250px;line-height:125%;font-family:'Nunito Sans';-inkscape-font-specification:'Nunito Sans, Normal';text-align:start;writing-mode:lr-tb;text-anchor:start;fill:#ffffff;fill-opacity:1"
         id="path4173" />
    </g>
  </g>
  <g
     inkscape:label="Layer 1"
     inkscape:groupmode="layer"
     id="layer1"
     transform="translate(-120.38384,-106.67233)"
     style="display:inline" />
</svg>
