<!-- Generated by IcoMoon.io -->
<svg version="1.1" xmlns="http://www.w3.org/2000/svg" width="22" height="28" viewBox="0 0 22 28">
<title>bold</title>
<path d="M8.672 23.766c0.688 0.297 1.437 0.5 2.188 0.5 3.563 0 5.875-1.422 5.875-5.234 0-0.969-0.125-1.984-0.641-2.812-1.453-2.344-3.547-2.469-6.062-2.469-0.469 0-1.141 0-1.578 0.156 0 1.656-0.016 3.313-0.016 4.953 0 1.078-0.141 4 0.234 4.906zM8.453 12.109c0.562 0.094 1.141 0.109 1.703 0.109 3.219 0 5.516-0.906 5.516-4.516 0-3.047-2.703-4.094-5.313-4.094-0.688 0-1.359 0.094-2.031 0.203 0 1.578 0.125 3.156 0.125 4.734 0 0.828-0.016 1.656-0.016 2.484 0 0.359 0 0.719 0.016 1.078zM0 26l0.031-1.469c1-0.25 2.016-0.266 2.984-0.672 0.547-0.922 0.469-2.547 0.469-3.594 0-0.344 0.031-15.281-0.344-16.016-0.234-0.453-2.531-0.562-3.047-0.625l-0.063-1.297c3.719-0.063 7.438-0.328 11.141-0.328 0.703 0 1.422 0.016 2.125 0.016 3.531 0 7.422 1.687 7.422 5.75 0 2.797-2.125 3.844-4.328 4.844 2.969 0.672 5.609 2.688 5.609 5.969 0 5.375-4.891 7.156-9.469 7.156-1.375 0-2.75-0.094-4.125-0.094-2.797 0-5.625 0.25-8.406 0.359z"></path>
</svg>
