<svg xmlns="http://www.w3.org/2000/svg" viewBox="0 0 56.667 58.5" height="48" width="48">
  <path fill="#399f49" stroke="#035946" stroke-miterlimit="10" stroke-width=".25" d="M8.542 35.625c.081.734-1.09.732-1.216.139-.34.279-1.339.488-1.445-.125-.347.234-1.795.254-1.468-.465-.354-.139-.71-.357-.614-.793l.072-.014c-.137-.186-.321-.607.04-.664-.009-.348-.37-.768.166-.92-.042-.154-.153-.365-.118-.543.071-.359.228-.092.378-.33.191-.305-.108-.627.526-.535-.242-.092-1.069-.686-.453-.799-.055-.395-.522-.525-.444-1.028.11-.016.162-.094.278-.094.021-.319-.044-.689.333-.796-.112-.512-.059-1.109.585-1.206-.163-.403-.057-.955.538-.755-.052-.511.622-.72 1.047-.704-.083-.542 1.197-.563 1.541-.498.003-.515.214-.781.789-.752.023-.424-.062-.688.34-.869.158-.07.257.061.377-.089.106-.133-.054-.425.112-.59.126-.126.369-.071.521-.112.266-.071.324-.138.572-.29.233-.145.896-.356 1.094-.088.153-.203.598-.458.833-.216.239.244-.073.594-.129.836.174.01.355.01.529.001-.075-.38.271-.188.425-.367.096-.113.069-.471.089-.62.258-.061.53.145.658.347.223-.379.734-.313.885-.026.424-.571 1.068.187 1.049.636.348-.139.49-.143.651.13.113.191.13.61-.006.656.398.119.765.379.655.829a.23.23 0 0 1-.098.005c.452.148.704.646.334.969-.224.193-.717-.002-.722.4-.274.017-1.087.046-.707.581.124.175.441.089.587.215.177.153.237.521.2.746-.104.017-.169.081-.273.09.569.166.242.751-.214.756-.04.345.117.696.061 1.029a1.183 1.183 0 0 1-.395.094c-.047.705-.199.842-.909.826.429.377-.36.811-.559.504-.073.18.035.459-.12.625-.174.184-.511.127-.745.127-.044.375-.21.756-.43 1.031-.237.037-.507.012-.695-.148.011.57-.289 1.123-.914.783-.066.262-.047.527-.141.783-.248.012-.711-.107-.752-.365-.082.211.094.766-.125.949-.237.201-.841-.102-1.034-.242-.119.191-.188.529-.397.656-.277.17-.09.037-.359.008-.329-.037-.818-.209-.825.293" class="nocolor"></path>
  <path fill="#c0dea4" stroke="#035946" stroke-miterlimit="10" stroke-width=".25" d="M50.884 48.307s-.396 2.51-3.907 4.947c-3.477 2.413-6.159 1.26-6.159 1.26S38.4 47.62 33.963 42.979s-12.671-8.391-12.671-8.391L37.045 23.63s.031 6.559 3.938 12.842 9.901 11.835 9.901 11.835z" class="nocolor"></path>
  <path fill="#399f49" stroke="#035946" stroke-miterlimit="10" stroke-width=".25" d="M11.582 33.188c-.47.001-1.473-.088-1.239.676.053.027.104.042.156.072-.507.316-1.066.32-.907 1.055.107-.009.258.041.363.021-.325.306-.819.474-.811.988.006.408.313.621.68.76-.271.473.055.768.563.762a5.35 5.35 0 0 0-.173.592c.378.199.489.707.982.646-.039.58.569.979 1.125.855-.025-.082-.018-.18-.045-.236.216.359 1.173.568.953-.123.311.271 1.402.477 1.358-.223.439.48.886.074.877-.449.126.021.358-.066.482-.045-.03-.613.916-.293.593.09.683-.439 1.692 1.195 2.152.061.377.369 1.42.316 1.255-.408.408.365 1.483.131 1.128-.412.061.004.49.006.683-.006.159-.244.365-.74 0-.865.101.021.397 0 .563-.005.07-.381-.309-.642-.546-.853.184-.042.24-.191.377-.263-.128-.215-.37-.241-.624-.196-.044-.227.047-.445.19-.61.111.015.199-.011.303.03.08-.455.466-.072.75-.219.396-.205.339-1.015.555-1.26.234-.267.978-.225 1.068-.622.057-.249-.269-.591-.37-.804.136-.029.17-.111.296-.143.131-.53-.405-.712-.667-1.039.429-.488-.373-1.175-.63-1.566.998-.376-1.444-1.177-1.631-1.251-.433-.172-1.632-1.197-1.996-.595-.525-.362-.759-.379-1.258-.246-.091.024-.115.229-.24.271-.215.071-.415-.113-.63-.065-.118.026-.29.141-.375.153-.073.01-.054.157-.183.167-.119.01-.303-.182-.44-.194-.457-.042-.786-.035-.9.49-.921-.032-1.075.25-1.107 1.063-.522-.11-.709.335-1.31.063-.203.266-.356.604-.382.938-.544-.008-.687.321-.642.761-.389.247-.905 1.251-.046 1.134.053.32.086.713-.298.75.303.252.114.471-.192.553" class="nocolor"></path>
  <path fill="none" stroke="#759d59" stroke-miterlimit="10" stroke-width=".25" d="M34.411 40.436S31.459 37.188 29.396 36c-2.963-1.706-5.9-2.418-5.9-2.418" class="nocolor"></path>
  <path fill="#399f49" stroke="#035946" stroke-miterlimit="10" stroke-width=".25" d="M21.583 15.583c-.126.302-.13.651.287.631-.239.359.057.916.541.833-.144.435.595.951.917.623-.166.42.323.955.748.624-.003.5 1.132 1.042 1.216.467.173.338 1.143.856 1.301.281.079.089.176.215.249.324.512.134.869.276 1.17-.236.301.316 1.141.521 1.248-.085.3.347 1.061.486 1.197-.117.213.531 1.343.404 1.43-.177.245.381.834.314 1.191.115.04-.13.058-.261.056-.406.406.298 1.083.184 1.252-.333.279.165.215.511.616.497.369-.014.394-.518.744-.506.059-.357.326-.121.432.073.395-.098.511-.393.37-.809.279-.016.406-.339.377-.585.461.024.949-.193.958-.708.579.167.896-.125.738-.708-.06.002-.125-.014-.188-.003.352-.047 1.056-.211.948-.663.154-.021.294-.034.449-.054.026-.55-.003-.958.675-.801.093-.366-.004-.887-.488-.866.134-.166.232-.444.071-.568.77.163.715-.129.754-.794.288.042.502-.22.654-.434.08-.112-.019-.199.086-.313.1-.107.377-.081.467-.207.242-.343-.081-1.075-.499-1.104-.015-.287.041-2.028-.587-1.706.386-.131-.39-.491-.663-.443.006.042-.007.102-.006.147-.033-.427-.9-.894-.923-.242-.2-.121-.775-.577-.834 0-.305.084-.394-.159-.479-.37-.098.157-.211.316-.239.495-.208-.012-.326-.224-.44-.375-.386.601-.413-.069-.627-.328-.248-.301-.776-.331-1.126-.014-.174-.843-.771-.367-1.216-.399-.271-.019-.49-.275-.824-.253-.298.02-.631.13-.833.363-.129-.449-.876-.475-1.196-.35-.199.077-.133.15-.364.165-.253.017-.514-.198-.785-.137-.228.051-.208.195-.373.286-.275.151-.203-.007-.568-.027-.382-.021-.577.315-.639.652-.186.012-.634-.082-.786.004-.125.071-.167.322-.218.455-.455-.001-.641.083-.939.297-.191.137-.107.275-.504.201-.232-.706-1.15.712-.385.806.003.051.001.103.002.154-.161.01-.329.002-.489.013-.117.239-.005.446.146.63-.207.061-1.108.412-.535.663.08.3-.119.619-.447.583a.875.875 0 0 1-.011.153c-.279.143-.586-.202-.837-.045-.172.107-.148.423-.271.562-.172.193-.355.076-.582.25-.178.136-.242.538-.265.734-.681 0-.481.516-.783.841-.223.24-.549.12-.546.583.001.216.1.383.255.498-.142.171-.297.339-.248.577.39.083-.018.457.243.674" class="nocolor"></path>
  <path fill="#399f49" stroke="#035946" stroke-miterlimit="10" stroke-width=".25" d="M9.458 16.729c-.174-.068-1.271-.211-.836.157-.348-.021-.771.292-.583.667-.459.084-1.237 1.29-.592 1.307-.299.198-.409.39-.365.744.026.215.18.655.447.623-1.211.375-.295 1.969.675 1.865-.648.641 1.009 1.357 1.005.606 0 .483.023.615.457.832.332.166.669.22.833-.163.136.3.786.465.841.074.366.433.626.089.87-.239.033.156.144.352.287.406.252.096.418-.158.616-.13.438.063.538.942 1.096.225.238.353 1.279.589 1.298-.051.532.105 1.296.358 1.207-.494a.607.607 0 0 0 1.127-.214c.319.09.619.319.941.087.074-.053.141-.279.185-.302.182-.094.174-.001.374-.006.259-.006.375.044.578-.12.149-.12.093-.251.247-.333.333-.174.528.078.59-.493.329.051 1.187-.396 1.042-.743.408.338.854-.035.833-.507.554.023 1.024-.308 1.083-.835.479-.017.881.047.834-.583.414.056 1-.361.787-.809.297-.151.535-.214.377-.605.678.016.599-.782.252-1.061.561.389.689-.313.708-.773.345.143.593-.405.469-.693.426-.111.098-.992-.252-.811.005-.004.145-.04.057-.045.011.001.021 0 .031-.002-.157.057-.235.244-.346.33.146-.403.565-.535.91-.66.564-.205.523-.459.01-.752.814-.042.365-1.102-.247-.998a.42.42 0 0 1 .106-.006c.01-.556-1.904-1.485-1.744-.339.001-.283.49-1.059.077-1.194.441-.149-.059-.52-.227-.67.346-.39-.869-1.151-1.219-1.075-.306.794-.987-1.126-1.347-.261-.235-.169-.732-.221-.829.124-.176-.045-.477-.236-.664-.165-.131.049-.137.297-.245.33-.456.139-.614-.5-.927.209-.567-.281-.904.019-.872.665-.166.023-.337-.04-.49-.071-.02.126-.106.158-.138.279-.287.002-.18-.292-.284-.452-.11-.17-.23-.25-.494-.244.001.072-.043.133-.049.187-.136-.53-.604-.086-.831.097-.107-.259-.386-.549-.666-.461-.242.077-.284.493-.499.546-.415.103-.733-.46-1.009.15-.196-.038-1.017.003-.682.301-.37-.247-.995-.182-.898.377-.271.011-.553-.004-.823.009-.077.233-.288.452-.185.706-.294-.006-.887-.132-1.032.121-.079.137.012.452-.046.62-.294.018-.796-.055-.998.222-.136.188-.045.409-.082.618-.087.492-.25.331-.616.256-.019.324-.084.737.186.962-.24.195-1.072.391-.362.709-1.139.407.667.766.287 1.523-.519-.028-.229.325-.038.507-.147.106-.286.123-.371.25" class="nocolor"></path>
  <path fill="#399f49" stroke="#035946" stroke-miterlimit="10" stroke-width=".25" d="M16.016 25.75c-.374-.081-.723.054-.616.491.059.016.108.001.165.02-.511.289-.703.214-.736.815-.022.408-.016.729.492.621-.099.428-.499 1.686.436 1.563-.088.567.886.624 1.271.688.005-.079.066-.189.051-.306.075.64 1.76.944 1.715.176.348.197.87.308 1.047-.188.523.288 1.401.628 1.625-.308.623.067.646-.371 1.065-.465.446-.099 1.631.381 1.435-.597.228-.101.371-.314.435-.565.871.076 1.168.345 1.189-.623.494-.026 1.388.214 1.25-.563.608-.018.937-.037.875-.75.487.021 1.027-.43 1-.938.512.025 1.135-.043 1.063-.688.634-.023.913-.373 1.076-.939.989.051.872-.14 1.049-1.061.451.066.789-.33.81-.75.646.143.845-.801.796-1.312-.095-.032-.192-.107-.28-.132.34-.206 1.884-.829.92-1.365.626-.087-.061-.774-.375-.813.011.003.142.03.174.042.087-.493-.601-1.612-1.044-.995.31-.649-1.155-.771-1.312-.255.444-.813-1.193-2.239-1.382-1.013-.192-.253-.477-.459-.754-.611-.21.134-.302.349-.211.577-.292-.233-.707-.161-.717.235.652-.207-.035-1.108-.3-1.434.07.001.151-.008.218-.005.169-.69-1.218-.703-1.548-.354-.261-.231-.975-.581-1.124-.093-.73-.612-1.315-.133-1.625.579-.48-.2-1.481-.269-1.323.542-.449.061-.755-.09-.998.336-.113.199-.09.714.044.878-.191-.042-.306.062-.468.07.021.586-.167 1.164-.879.759.028.117-.039.29-.017.408-.496.244-.817-.662-1.169-.058-.096-1.019-1.707-.726-1.729.371-.336.009-.916-.062-1.15.259-.083.113.009.431-.066.563-.239.421-.801.286-1.001.75-.068.157.07.407.002.564-.089.205-.286.188-.377.321-.227.328-.478.604-.176.979.072.001.157.021.229.021-.087.613.414.792-.479 1.001-.018.295-.054.648.05.909-.241.084-.472.208-.632.393.598.428.904.209 1.003 1.055-.153.052-.323.177-.479.2.347-.008.706.169.972.383.047.037.071.349.135.43.072.093.225.062.315.245" class="nocolor"></path>
  <path fill="none" stroke="#759d59" stroke-miterlimit="10" stroke-width=".25" d="M35.155 25.565s.054 3.956.491 5.872c.456 1.996 3.563 6.313 3.563 6.313m-2.23 2.042s-2.458-3.354-4.333-4.979c-2.584-2.239-5.719-3.087-5.719-3.087" class="nocolor"></path>
  <path fill="#399f49" stroke="#035946" stroke-miterlimit="10" stroke-width=".25" d="M42.333 20.125c.072.391-.028.832-.477.822.244.662-.288.582-.54.86-.306.336-.288 1.034-.971.699.043.566-.448.885-.95.688-.227.271-.76 1.132-1.138.639-.264.406-1.164.628-1.503.252-.232.5-1.291.805-1.436.109-.461.416-1.565.666-1.683-.237-.604.577-1.891-.085-1.363-.505-1.294.028-1.502-.451-1.257-.904-.248-.235-1.024-.625-.704-1.05-.296.043-.56-.104-.781-.258-.095-.303.063-.523.308-.614-.188-.24-.234-.668.049-.827-.099-.281-.062-.662-.045-.977.073-.01.157-.019.23-.019.033-.321-.818-1.098.188-.952-.098-.544.178-.725.688-.673-.094-.585.543-.563.872-.374.053-.275.231-.555.575-.555-.469-.047-.769-.041-1.002-.347-.363-.48.097-.733.614-.534.138-.448.119-.892.147-1.359.259-.05.529-.017.74.109.104-.283.392-.371.677-.315.149-.42.599-.775.997-.499.159-.445.677-.486.965-.142.49-.348.788-.538 1.22-.045.33-.403.762-.245.953.173.239-.443.548-.055.637.264.469-.263.761.445.385.512.372-.09.511-.083.667.277.141-.453.259-.861.678-.55-.015-.529.407-.669.821-.44.593-.662.697-.161 1.313-.097.204.021 1.583-.465 1.336.373.547-.253 1.122.502.867.81.717-.088 1.396.893.57 1.063.308.199.473.594.405.989-.561.092.262.789-.406.945.337.167.354 1.168-.325 1.139.392.543-.288.884-.747.68.077.465-.293.96-.757.644.039.093.019.193.046.278-.262.104-.604.141-.739-.052" class="nocolor"></path>
  <path fill="#399f49" stroke="#035946" stroke-miterlimit="10" stroke-width=".25" d="M22.46 30.406c-.381.232-.758.103-.916-.308.009-.002.177-.185.109-.088-.446.029-.728-.309-.749-.736a.297.297 0 0 1 .174-.023c-.281-.084-.749-.958-.096-1.128-.535-.291-.843-1.203.032-1.143-.405-.06-.512-.446-.451-.84.146.021.377-.083.502-.072-.078-.401-.054-.884.394-.962-.176-.646.577-.907 1.11-.941-.04-.097-.049-.226-.083-.315.879.147.85-1.02 1.705-.64.262-.423.86-.694 1.173-.164.035-.671.922-.552.993.043.217-.625.27-1.119 1.071-1.011-.153-.596.518-1.278.972-1.639.154-.123.703-.209.895-.284.426-.166.617-.608 1.12-.266.484-.592.658-.096 1.141-.128.392-.026.779-.625 1.104.028.431.005 1.198-.239 1.1.314.506-.173.929.081.925.565.457-.058.606.327.549.741.413.037.597.398.479.758.476-.016.921.549 1.013 1.022-.049.019-.185.067-.227.088.351.233.687.802.222 1.058-.133.565.584 1.153-.298 1.241.16.435.343 1.195-.287 1.239.163.51.223 1.195-.563 1.083.071.49-.265.942-.755.848.148.701-.149 1.163-.92 1.08.064.725-1.002.624-1.501.536.36.389-.312 1.139-1.021.398-.192.731-.196 1.256-1.096 1.199.087.869-.726.994-1.199.83-.089.742-.911.661-1.243.344-.08.579-1.313.644-1.583.255-.115.913-1.416.581-1.609-.091-.715.665-1.341.128-1.561-.55-1.141.381-1.417-.613-.475-.967-.234-.303-.173-.917-.166-1.312" class="nocolor"></path>
  <path fill="none" stroke="#035946" stroke-linejoin="bevel" stroke-miterlimit="10" stroke-width=".15000001" d="M33.833 21.083c.586-.153.753.353.242.589-.062-.005-.062-.009 0-.011.634.131.739 1.063.033 1.173.818-.117 1.193.461.756.837.628-.109 1.061.93.315 1.006.466.493.37 1.29-.338 1.399.319.672-.774.875-1.183.368.364.635-.222.907-.797.798.471.49.1.848-.416.937.472.658-.529 1.079-.879.491.141 1.172-.886.708-1.24.443.35.729-.479 1.26-1.136.647.101.362.107.705-.108.987" class="nocolor"></path>
  <path fill="none" stroke="#035946" stroke-linejoin="bevel" stroke-miterlimit="10" stroke-width=".15000001" d="M33.349 23.922c-.088.063-.156.406-.375.281-.219-.156-.063-.844.469-.75.391.078.448.407.245.678.56-.482.88-.162.942.338.016.297-.234.672-.563.719.304.162.442.415.125.688-.317.273-.672-.109-1-.516" class="nocolor"></path>
  <path fill="none" stroke="#035946" stroke-miterlimit="10" stroke-width=".15000001" d="M43.005 14.797c.337-.007 1.094.609.25 1.109.609.406.781 1.172.156 1.219.25.25.469.781-.549 1.129.674.308-.521 1.259-1.092.667m-4.187 4.162c.771-.016 1.278-.122 1.198-1.006.579.143 1.221-.387.725-.894.522.108 1.146.1 1.327-.517" class="nocolor"></path>
  <path fill="none" stroke="#035946" stroke-miterlimit="10" stroke-width=".15000001" d="M40.083 15.417c.515-.383 1.502-.338 1.281.508.797-.598 1.107.924.374.992.613.049.476.649-.071.75m-23.294-5.365c-.143-.432.355-.644.689-.71-.036-.074-.09-.117-.127-.19a1.47 1.47 0 0 1 .488-.413c.105.104.232.11.34.226.358-.797 1.263-.213 1.661.311.064-.13.21-.183.285-.295.341.186.652.455.523.833.237-.588.79-.046 1.04.338m-11.751 4.786c-.611-.083-1.501.813-.772.94-1.378-.522-1.539 1.415-.688 1.307-1.15.335-.124 1.695.65 1.15-.111.76 1.162 1.293 1.247.434.334.832 1.254.337 1.25-.394m-.312-6.5c-.73-.544.206-.695.616-.678-.003.068.018.155.019.222.324-.292.819-.44 1.229-.283.137.175.344.362.45.596.182-.622 1.954-.863 2.004.014.536-.282 1.303-.171 1.2.556.473.066.834.051 1.042.433.161.296.201.648-.186.703m13.813-7.271c.163-.28.68-.446.952-.243-.001.105.048.148.024.238.251-.33 1.196-.222 1.068.325.34-.234 1.05-.526 1.126.113.332-.239.815-.509 1.13-.188.165.168.234.559.068.629.331.029.783.666.352.849.072.134.269.445.239.609-.059.334-.266.125-.411.342-.109.163.068.333-.101.481-.128.113-.412.051-.573.052m-8.374-.291c-.079-.601.345-.963.901-.997-.236-.513.846-.424 1.063-.093.292-.071.304-.575.645-.541.164.016.129.528.219.641.018.101.469-.097.672.141-.076-.403.307-.415.588-.359.259.05.412.162.572.382.505-.268 1.134-.342 1.134.403.322-.012.619.15.54.506M22.709 27.208c-.063-.011-.14-.001-.202.006-.093.329-.069.939.43.868-.59.125-.093.956.394.715-.494.167.094 1.09.62.622-.014.618.594.412.842.122m-6.147-7.478c-.604-.48-.363-1.218.416-1.117-.394-.528.417-.6.771-.555-.354.09-.569-.268-.667-.565.086.009.197-.029.283-.022-.022-.458 1.644-1.232 1.795-.494.02-.367 1.295-.84 1.302-.017.245-.149.618-.179.837.019.214.193.078.58.197.692.39.364.624-.354 1.119-.262.011-.106.035-.259.009-.366m-6.75 8.062c-.35-.357-1.017-1.705.058-1.509-.137-.208-1.444-1.237-.575-1.114-.809-.302.404-.67.761-.616.008.077.037.095.072.155-.043-.295.133-.124.247-.228m7.75-6.501c-.174-.752.935-.797 1.25-.337.287-.412.783-.212.938.15M12.646 37.125c-.803-.031-1.05-1.31-.205-1.121-.556-.255-.32-.936.247-.843-.524-.501.213-.76.635-.734.143-.385.57-.36.875-.166a.774.774 0 0 1 .064.418c-.064.023-.152.058-.19.071.434.217 1.308-.469 1.447-.019.265-.492.703-.114.952.186.344-.309.839-.449 1.112.021m2.188-1.063c.077-.018.107.023.179-.023-.016-.591-.563-.658-.861-1.023.072-.062.062-.056.117-.124-.259-.203-1.375-.967-1.541-.397-.261-.183-1.894-.854-1.598.074-.312-.058-1.332-.174-.922.432M34.667 18c-.406-.114-.382-.609-.321-.988.405-.007.469-.248.718-.371.27-.133.354-.197.683-.308.143-.048.383.068.504.024.188-.067.195-.311.328-.357.377-.134.63-.452.987.054.302-.294.699.066 1.004.293-.116.152-.096.359-.33.488.234.185.498.396.595.664m-10.002 8.084c-.921-.112.028-1.508.743-1.511-.185-.272-.425-.554-.395-.891.252-.136.42-.26.723-.271-.162-.83.791-.901 1.417-.814-.037.139.005.251-.063.389.136.062.131-.041.242-.068M8.083 34.063c-.348-.021-1.353-.663-.586-.811-.389-.141-.941-.251-.779-.806.274-.034.391-.3.439-.561.118.027.296-.046.416-.017.061-.391.262-.714.698-.619M6.646 29c-.506-.318-.164-1.135.331-.819-.231-.663.994-.829 1.288-.442-.832-.16 1.333-1.032.825.124.484.036.358-.356.618-.534.225-.154.637-.224.871-.152-.282-.408-1.447-1.328-.192-1.186.044-.692.762-.103 1.006-.113.455-.019 1.285-.589 1.378.31M10.021 30c-.107.025-.259.001-.366-.008-.104-.485.268-.726.669-.751-.115-.929.675-.376.947-.991" class="nocolor"></path>
  <path fill="none" stroke="#035946" stroke-miterlimit="10" stroke-width=".15000001" d="M16.083 15.188c.011-.062-.007-.116.009-.178.241-.01.49-.01.731 0 .013.06.004.111.02.17.27-.092.625-.184.927-.055" class="nocolor"></path>
</svg>
