<?xml version="1.0" encoding="iso-8859-1"?>
<!-- Generator: Adobe Illustrator 18.0.0, SVG Export Plug-In . SVG Version: 6.00 Build 0)  -->
<!DOCTYPE svg PUBLIC "-//W3C//DTD SVG 1.1//EN" "http://www.w3.org/Graphics/SVG/1.1/DTD/svg11.dtd">
<svg version="1.1" id="Capa_1" xmlns="http://www.w3.org/2000/svg" xmlns:xlink="http://www.w3.org/1999/xlink" x="0px" y="0px"
	 viewBox="0 0 58 58" style="enable-background:new 0 0 58 58;" xml:space="preserve">
<g
   id="g62">
	<path
   id="path54"
   style="fill:#888888;"
   d="M 28.5 0 C 12.76 0 0 12.76 0 28.5 C 0 44.24 12.76 57 28.5 57 C 32.103 57 35.547703 56.326469 38.720703 55.105469 L 34.064453 54.070312 C 33.525453 53.950314 33.185688 53.415953 33.304688 52.876953 C 33.425688 52.337953 33.966094 52.002185 34.496094 52.117188 L 41.748047 53.732422 C 41.751047 53.730422 41.756766 53.728563 41.759766 53.726562 L 41.929688 53.771484 L 42.255859 53.845703 C 42.282859 53.851703 42.302125 53.868953 42.328125 53.876953 L 58 58 L 53.011719 43.037109 C 55.542719 38.780109 57 33.812 57 28.5 C 57 12.76 44.24 0 28.5 0 z M 15 20 L 29 20 C 29.552 20 30 20.448 30 21 C 30 21.552 29.552 22 29 22 L 15 22 C 14.448 22 14 21.552 14 21 C 14 20.448 14.448 20 15 20 z M 15 28 L 42 28 C 42.552 28 43 28.448 43 29 C 43 29.552 42.552 30 42 30 L 15 30 C 14.448 30 14 29.552 14 29 C 14 28.448 14.448 28 15 28 z M 15 36 L 42 36 C 42.552 36 43 36.448 43 37 C 43 37.552 42.552 38 42 38 L 15 38 C 14.448 38 14 37.552 14 37 C 14 36.448 14.448 36 15 36 z " />
</g>
</svg>
