<svg version="1.1" xmlns="http://www.w3.org/2000/svg" x="0px" y="0px" viewBox="0 0 90 112.5">
<title>exclamation</title>
<path d="M45,0C20.1,0,0,20.1,0,45c0,24.9,20.1,45,45,45s45-20.1,45-45C90,20.1,69.9,0,45,0z M44.6,10.8c4-0.2,7.3,2.9,7.5,6.8   c0,0.2,0,0.5,0,0.7l-1.7,34.3c-0.1,3-2.7,5.4-5.8,5.2c-2.8-0.1-5.1-2.4-5.2-5.2l-1.7-34.3C37.6,14.4,40.7,11,44.6,10.8z M50.3,77   c-1.4,1.4-3.3,2.2-5.3,2.2c-2,0-3.9-0.8-5.3-2.2c-1.4-1.4-2.2-3.3-2.2-5.3s0.8-3.9,2.2-5.3c1.4-1.4,3.3-2.2,5.3-2.2   c2,0,3.9,0.8,5.3,2.2c1.4,1.4,2.2,3.3,2.2,5.3S51.7,75.6,50.3,77z"/></path>
</svg>
