<!-- Generated by IcoMoon.io -->
<svg version="1.1" xmlns="http://www.w3.org/2000/svg" width="16" height="28" viewBox="0 0 16 28">
<title>italic</title>
<path d="M0 25.969l0.266-1.328c1-0.313 2.078-0.438 3.016-0.922 0.359-0.453 0.531-1.031 0.641-1.578 0.203-1.062 3.609-16.391 3.563-17.641v-0.391c-0.859-0.469-1.906-0.344-2.844-0.5l0.297-1.609c2.016 0.094 4.062 0.25 6.094 0.25 1.656 0 3.313-0.156 4.969-0.25-0.063 0.469-0.172 0.938-0.297 1.391-1.078 0.375-2.219 0.547-3.281 0.969-0.344 0.844-0.422 1.766-0.578 2.656-0.75 4.047-1.75 8.094-2.578 12.109-0.156 0.75-0.922 3.859-0.859 4.516l0.016 0.281c0.953 0.219 1.922 0.328 2.891 0.484-0.031 0.516-0.125 1.031-0.25 1.547-0.344 0-0.672 0.047-1.016 0.047-0.891 0-1.813-0.297-2.703-0.313-1.078-0.016-2.156-0.031-3.219-0.031-1.391 0-2.75 0.234-4.125 0.313z"></path>
</svg>
