<svg xmlns="http://www.w3.org/2000/svg" viewBox="0 0 27.559695 13.83881" height="48" width="48"><path d="M10.148549 3.669919l.104904.430023 1.710724.328796 1.580658.979126 11.892473-1.21582.70578-1.428223-1.868103-.166046.01277-.463043 1.956863.177246.917419-1.505707.397659.201996-.938736 1.63739.744156 1.736389-.419037.177246-.567505-1.456238-.230637 2.157898-10.174164 2.603516c-.488327 1.061707-.578705 2.398254-1.242264 3.160339-.663559.762115-1.599352.979736-2.460924 1.444824-.04402.447357-.0641 1.20752-.775558 1.218384-.711487.01083-.829025-.547577-.822784-1.155426l-3.760099.161346c-.104218.55014.047195 1.189178-.876312 1.142456-.923538-.046753-.683853-1.256653-.790695-1.303345-.106812-.046753-.414383.085388-2.29216-.61441-1.877746-.699768-1.960845-4.641449 1.266022-4.969879.388047-.257507 1.49379-.267487 1.609573-1.118958.131226-.583801.881104-1.142822 1.928009-1.380126l.919647-.18448.02151-.619904-8.372108.07184L0 2.774685l8.432097.09116L5.158721.225708 6.307433.121826l3.246048 2.302948L18.929261 0l1.23317.502167-9.663912 2.370667 7.231142 1.786865-1.157776.811432-6.423342-1.801208z"></path></svg>
