<svg version="1.1" xmlns="http://www.w3.org/2000/svg" width="16" height="16" viewBox="0 0 16 16"><path d="M8.001 4c-2.209 0-4 1.791-4 4s1.791 4 4 4c2.209 0 3.999-1.791 3.999-4s-1.79-4-3.999-4v0zM7 1c0-0.552 0.448-1 1-1s1 0.448 1 1c0 0.552-0.448 1-1 1s-1-0.448-1-1zM2 3c0-0.552 0.448-1 1-1s1 0.448 1 1c0 0.552-0.448 1-1 1s-1-0.448-1-1zM1 7c0.552 0 1 0.447 1 1s-0.448 1-1 1-1-0.447-1-1c0-0.553 0.448-1 1-1zM2 13c0-0.552 0.448-1 1-1s1 0.448 1 1c0 0.552-0.448 1-1 1s-1-0.448-1-1zM7 15c0-0.555 0.447-1 1-1 0.554 0 1 0.445 1 1 0 0.551-0.446 1-1 1-0.553 0-1-0.449-1-1zM12 13c0-0.552 0.448-1 1-1s1 0.448 1 1c0 0.552-0.448 1-1 1s-1-0.448-1-1zM15 9c-0.552 0-1-0.448-1-1 0-0.553 0.448-1 1-1s1 0.447 1 1c0 0.552-0.448 1-1 1zM12 3c0-0.552 0.448-1 1-1s1 0.448 1 1c0 0.552-0.448 1-1 1s-1-0.448-1-1z"></path></svg>
